<svg version="1.1" id="Layer_1" xmlns="http://www.w3.org/2000/svg" xmlns:xlink="http://www.w3.org/1999/xlink" x="0px" y="0px" viewBox="0 0 64 64" enable-background="new 0 0 64 64" xml:space="preserve">
<path d="M12.0283203,19.7158203H6.7226562c-0.5527344,0-1,0.4472656-1,1v6.9648438c0,0.5527344,0.4472656,1,1,1h5.3056641
	c0.5527344,0,1-0.4472656,1-1v-6.9648438C13.0283203,20.1630859,12.5810547,19.7158203,12.0283203,19.7158203z
	 M11.0283203,26.6806641H7.7226562v-4.9648438h3.3056641V26.6806641z" id="id_133" style="fill: rgb(255, 255, 255);"></path>
<path d="M12.0283203,31H6.7226562c-0.5527344,0-1,0.4472656-1,1v6.9638672c0,0.5527344,0.4472656,1,1,1h5.3056641
	c0.5527344,0,1-0.4472656,1-1V32C13.0283203,31.4472656,12.5810547,31,12.0283203,31z M11.0283203,37.9638672H7.7226562V33
	h3.3056641V37.9638672z" id="id_134" style="fill: rgb(255, 255, 255);"></path>
<path d="M12.0283203,42.2841797H6.7226562c-0.5527344,0-1,0.4472656-1,1v6.9638672c0,0.5527344,0.4472656,1,1,1h5.3056641
	c0.5527344,0,1-0.4472656,1-1v-6.9638672C13.0283203,42.7314453,12.5810547,42.2841797,12.0283203,42.2841797z
	 M11.0283203,49.2480469H7.7226562v-4.9638672h3.3056641V49.2480469z" id="id_135" style="fill: rgb(255, 255, 255);"></path>
<path d="M51.9716797,28.6806641h5.3056641c0.5527344,0,1-0.4472656,1-1v-6.9648438c0-0.5527344-0.4472656-1-1-1h-5.3056641
	c-0.5527344,0-1,0.4472656-1,1v6.9648438C50.9716797,28.2333984,51.4189453,28.6806641,51.9716797,28.6806641z
	 M52.9716797,21.7158203h3.3056641v4.9648438h-3.3056641V21.7158203z" id="id_136" style="fill: rgb(255, 255, 255);"></path>
<path d="M51.9716797,39.9638672h5.3056641c0.5527344,0,1-0.4472656,1-1V32c0-0.5527344-0.4472656-1-1-1h-5.3056641
	c-0.5527344,0-1,0.4472656-1,1v6.9638672C50.9716797,39.5166016,51.4189453,39.9638672,51.9716797,39.9638672z M52.9716797,33
	h3.3056641v4.9638672h-3.3056641V33z" id="id_137" style="fill: rgb(255, 255, 255);"></path>
<path d="M51.9716797,51.2480469h5.3056641c0.5527344,0,1-0.4472656,1-1v-6.9638672c0-0.5527344-0.4472656-1-1-1h-5.3056641
	c-0.5527344,0-1,0.4472656-1,1v6.9638672C50.9716797,50.8007812,51.4189453,51.2480469,51.9716797,51.2480469z
	 M52.9716797,44.2841797h3.3056641v4.9638672h-3.3056641V44.2841797z" id="id_138" style="fill: rgb(255, 255, 255);"></path>
<path d="M61,15.3964844H49.25V5.71875c0-0.5527344-0.4472656-1-1-1h-32.5c-0.5527344,0-1,0.4472656-1,1v9.6777344H3
	c-0.5527344,0-1,0.4472656-1,1V58.28125c0,0.5527344,0.4472656,1,1,1h12.75h8.4150391h5.2236328h5.2226562h5.2236328H48.25H61
	c0.5527344,0,1-0.4472656,1-1V16.3964844C62,15.84375,61.5527344,15.3964844,61,15.3964844z M4,17.3964844h10.75V57.28125H4
	V17.3964844z M16.75,6.71875h30.5v50.5625h-6.4150391V45.9287109c0-0.5527344-0.4472656-1-1-1h-5.2236328h-5.2226562h-5.2236328
	c-0.5527344,0-1,0.4472656-1,1V57.28125H16.75V6.71875z M25.1650391,46.9287109h3.2236328V57.28125h-3.2236328V46.9287109z
	 M30.3886719,46.9287109h3.2226562V57.28125h-3.2226562V46.9287109z M35.6113281,57.28125V46.9287109h3.2236328V57.28125H35.6113281
	z M60,57.28125H49.25V17.3964844H60V57.28125z" id="id_139" style="fill: rgb(255, 255, 255);"></path>
<path d="M38.4667969,41.6220703h5.3056641c0.5527344,0,1-0.4472656,1-1v-6.9638672c0-0.5527344-0.4472656-1-1-1h-5.3056641
	c-0.5527344,0-1,0.4472656-1,1v6.9638672C37.4667969,41.1748047,37.9140625,41.6220703,38.4667969,41.6220703z
	 M39.4667969,34.6582031h3.3056641v4.9638672h-3.3056641V34.6582031z" id="id_140" style="fill: rgb(255, 255, 255);"></path>
<path d="M29.3466797,41.6220703h5.3066406c0.5527344,0,1-0.4472656,1-1v-6.9638672c0-0.5527344-0.4472656-1-1-1h-5.3066406
	c-0.5527344,0-1,0.4472656-1,1v6.9638672C28.3466797,41.1748047,28.7939453,41.6220703,29.3466797,41.6220703z
	 M30.3466797,34.6582031h3.3066406v4.9638672h-3.3066406V34.6582031z" id="id_141" style="fill: rgb(255, 255, 255);"></path>
<path d="M25.5332031,41.6220703c0.5527344,0,1-0.4472656,1-1v-6.9638672c0-0.5527344-0.4472656-1-1-1h-5.3056641
	c-0.5527344,0-1,0.4472656-1,1v6.9638672c0,0.5527344,0.4472656,1,1,1H25.5332031z M21.2275391,34.6582031h3.3056641v4.9638672
	h-3.3056641V34.6582031z" id="id_142" style="fill: rgb(255, 255, 255);"></path>
<path d="M38.4667969,29.1484375h5.3056641c0.5527344,0,1-0.4472656,1-1v-6.9638672c0-0.5527344-0.4472656-1-1-1h-5.3056641
	c-0.5527344,0-1,0.4472656-1,1v6.9638672C37.4667969,28.7011719,37.9140625,29.1484375,38.4667969,29.1484375z
	 M39.4667969,22.1845703h3.3056641v4.9638672h-3.3056641V22.1845703z" id="id_143" style="fill: rgb(255, 255, 255);"></path>
<path d="M29.3466797,29.1484375h5.3066406c0.5527344,0,1-0.4472656,1-1v-6.9638672c0-0.5527344-0.4472656-1-1-1h-5.3066406
	c-0.5527344,0-1,0.4472656-1,1v6.9638672C28.3466797,28.7011719,28.7939453,29.1484375,29.3466797,29.1484375z
	 M30.3466797,22.1845703h3.3066406v4.9638672h-3.3066406V22.1845703z" id="id_144" style="fill: rgb(255, 255, 255);"></path>
<path d="M20.2275391,29.1484375h5.3056641c0.5527344,0,1-0.4472656,1-1v-6.9638672c0-0.5527344-0.4472656-1-1-1h-5.3056641
	c-0.5527344,0-1,0.4472656-1,1v6.9638672C19.2275391,28.7011719,19.6748047,29.1484375,20.2275391,29.1484375z
	 M21.2275391,22.1845703h3.3056641v4.9638672h-3.3056641V22.1845703z" id="id_145" style="fill: rgb(255, 255, 255);"></path>
<path d="M38.4667969,17.3964844h5.3056641c0.5527344,0,1-0.4472656,1-1V9.4326172c0-0.5527344-0.4472656-1-1-1h-5.3056641
	c-0.5527344,0-1,0.4472656-1,1v6.9638672C37.4667969,16.9492188,37.9140625,17.3964844,38.4667969,17.3964844z
	 M39.4667969,10.4326172h3.3056641v4.9638672h-3.3056641V10.4326172z" id="id_146" style="fill: rgb(255, 255, 255);"></path>
<path d="M29.3466797,17.3964844h5.3066406c0.5527344,0,1-0.4472656,1-1V9.4326172c0-0.5527344-0.4472656-1-1-1h-5.3066406
	c-0.5527344,0-1,0.4472656-1,1v6.9638672C28.3466797,16.9492188,28.7939453,17.3964844,29.3466797,17.3964844z
	 M30.3466797,10.4326172h3.3066406v4.9638672h-3.3066406V10.4326172z" id="id_147" style="fill: rgb(255, 255, 255);"></path>
<path d="M20.2275391,17.3964844h5.3056641c0.5527344,0,1-0.4472656,1-1V9.4326172c0-0.5527344-0.4472656-1-1-1h-5.3056641
	c-0.5527344,0-1,0.4472656-1,1v6.9638672C19.2275391,16.9492188,19.6748047,17.3964844,20.2275391,17.3964844z
	 M21.2275391,10.4326172h3.3056641v4.9638672h-3.3056641V10.4326172z" id="id_148" style="fill: rgb(255, 255, 255);"></path>
</svg>